<svg viewBox="0 0 80 55">
  <path d="M 0 51.072 L 0 3.928 C 0 1.965 2.051 0 4.103 0 L 20.513 0 C 22.564 0 24.615 1.965 24.615 3.928 L 24.615 51.072 C 24.615 53.035 22.564 55 20.513 55 L 4.103 55 C 2.051 55 0 53.035 0 51.072 Z M 22.564 7.531 L 22.564 6.221 C 22.564 6.057 21.832 5.893 21.098 5.893 L 3.517 5.893 C 2.784 5.893 2.051 6.057 2.051 6.221 L 2.051 7.531 C 2.051 7.693 2.784 7.857 3.517 7.857 L 21.098 7.857 C 21.832 7.857 22.564 7.693 22.564 7.531 Z M 22.564 13.423 L 22.564 12.113 C 22.564 11.949 21.832 11.785 21.098 11.785 L 3.517 11.785 C 2.784 11.785 2.051 11.949 2.051 12.113 L 2.051 13.423 C 2.051 13.586 2.784 13.75 3.517 13.75 L 21.098 13.75 C 21.832 13.75 22.564 13.586 22.564 13.423 Z M 12.308 37.322 C 8.909 37.322 6.154 39.96 6.154 43.215 C 6.154 46.47 8.909 49.107 12.308 49.107 C 15.707 49.107 18.462 46.47 18.462 43.215 C 18.462 39.96 15.707 37.322 12.308 37.322 Z M 32.821 0 L 75.897 0 C 77.949 0 80 1.965 80 3.928 L 80 45.178 C 80 47.143 77.949 49.107 75.897 49.107 L 32.821 49.107 C 30.769 49.107 28.718 47.143 28.718 45.178 L 28.718 3.928 C 28.718 1.965 30.769 0 32.821 0 Z M 30.769 5.578 L 30.769 43.528 C 30.769 47.143 32.656 47.143 34.544 47.143 L 74.174 47.143 C 75.897 47.143 77.949 47.143 77.949 43.528 L 77.949 5.578 C 77.949 1.965 76.062 1.965 74.174 1.965 L 34.544 1.965 C 32.656 1.965 30.769 1.965 30.769 5.578 Z M 37.99 7.857 L 70.728 7.857 C 72.287 7.857 73.846 9.15 73.846 10.443 L 73.846 37.591 C 73.846 38.884 72.287 40.176 70.728 40.176 L 37.99 40.176 C 36.431 40.176 34.872 38.884 34.872 37.591 L 34.872 10.443 C 34.872 9.15 36.431 7.857 37.99 7.857 Z M 46.769 51.072 L 63.999 51.072 C 65.641 51.072 65.641 53.035 65.641 53.035 C 65.641 53.035 65.641 55 63.999 55 L 46.769 55 C 45.128 55 45.128 53.035 45.128 53.035 C 45.128 53.035 45.128 51.072 46.769 51.072 Z"></path>
</svg>
